<?xml version="1.0" encoding="utf-8"?>
<!-- Generator: Adobe Illustrator 26.0.1, SVG Export Plug-In . SVG Version: 6.00 Build 0)  -->
<svg version="1.1" id="Layer_1" xmlns="http://www.w3.org/2000/svg" xmlns:xlink="http://www.w3.org/1999/xlink" x="0px" y="0px"
	 viewBox="0 0 2000 792" style="enable-background:new 0 0 2000 792;" xml:space="preserve">
<style type="text/css">
	.st0{fill:#FFFFFF;stroke:#58595B;stroke-width:0.75;stroke-miterlimit:10;}
</style>
<path class="st0" d="M189.1,523.8c-9.8,4.9-31.3,10.2-58.7,10.2c-71.8-0.2-115.5-45-115.5-114.2c0-74.4,52-119.3,121.2-119.3
	c27.2,0,46.4,5.5,54.8,10l-9.1,33c-13.9-6-29-9-44.1-8.7c-46.1,0-79.3,28.8-79.3,83.2c0,49.8,29.1,81.4,78.8,81.4
	c15.4,0.2,30.7-2.6,45.1-8.2L189.1,523.8z"/>
<path class="st0" d="M372.6,447c0,60.1-42.2,87.2-84,87.2c-46.1,0-81.8-32.1-81.8-84.5c0-53.6,35.3-86.6,84.6-86.6
	C340,363.2,372.6,397.4,372.6,447z M249.3,448.8c0,31.4,15.7,55.2,40.6,55.2c23.7,0,40.1-22.9,40.1-55.8c0-25.7-11.3-55.2-39.9-55.2
	S249.3,421.5,249.3,448.8L249.3,448.8z"/>
<path class="st0" d="M406.6,291.9H448v238.3h-41.4V291.9z"/>
<path class="st0" d="M492.9,291.9h41.4v238.3h-41.4V291.9z"/>
<path class="st0" d="M608.3,460c1.1,29.6,24,42.5,50.5,42.5c15.4,0.3,30.7-2.3,45.1-7.5l6.1,28.4c-18.2,7.2-37.6,10.7-57.1,10.4
	c-53.1,0-84.1-32.8-84.1-82.8c0-45.1,27.3-87.8,79.9-87.8s70.4,43.6,70.4,79.5c0.1,5.8-0.4,11.7-1.5,17.4L608.3,460z M680.1,431.2
	c0.2-15.2-6.4-39.9-34-39.9c-25.5,0-36,23.1-37.9,39.9H680.1z"/>
<path class="st0" d="M901.8,366.9c-0.8,11-1.4,24.5-1.4,46.9v92.6c0,34.3-6.9,58.6-24.2,74.1s-40.7,19.8-63.3,19.8
	c-20.8,0-42.8-4.4-56.7-13.1l8.7-31.5c14.5,8.2,31,12.6,47.7,12.6c26.8,0,47-14.2,47-49.4v-13.7H859c-10.7,15.7-28.7,24.7-47.6,24
	c-40.5,0-69.4-33.6-69.4-79.7c0-53.9,34.9-86.3,74.1-86.3c25.1,0,39.7,12,47.5,25.5h0.7l1.5-21.8L901.8,366.9z M859.1,432.3
	c0.1-3.8-0.4-7.5-1.3-11.2c-3.6-15.7-17.7-26.7-33.8-26.5c-22.9,0-40.2,20-40.2,53.4c0,27.8,14,50.3,39.9,50.3
	c15.5,0,29.1-10.2,33.4-25.1c1.3-4.7,1.9-9.6,1.9-14.5L859.1,432.3z"/>
<path class="st0" d="M973.9,460c1.1,29.6,24,42.5,50.5,42.5c15.4,0.3,30.6-2.3,45.1-7.5l6.1,28.4c-18.2,7.2-37.6,10.7-57.1,10.4
	c-53.1,0-84.2-32.8-84.2-82.8c0-45.1,27.3-87.8,79.9-87.8c52.6,0,70.4,43.6,70.4,79.5c0.1,5.8-0.4,11.7-1.4,17.4L973.9,460z
	 M1045.8,431.2c0-15.2-6.4-39.9-34.1-39.9c-25.4,0-36,23.1-37.8,39.9H1045.8z"/>
<path class="st0" d="M1281.8,523.8c-9.8,4.9-31.3,10.2-58.7,10.2c-71.8,0-115.5-45.1-115.5-114c0-74.4,51.9-119.3,121.1-119.3
	c27.2,0,46.4,5.5,54.8,10l-9,33.2c-13.9-6-29-9-44.1-8.7c-46.1,0-79.3,28.8-79.3,83.2c0,49.8,29,81.4,78.7,81.4
	c15.4,0.2,30.7-2.6,45.1-8.2L1281.8,523.8z"/>
<path class="st0" d="M1757.7,391.9c0-21.8-0.4-38-1.4-52.5h35.8l1.5,31h1.3c8-23,27.1-34.9,44.7-34.9c3.3-0.1,6.5,0.2,9.7,0.9v38.9
	c-4-0.8-8.1-1.2-12.1-1.1c-18.5-0.5-34.4,12.9-37,31.3c-0.7,4.1-1.1,8.3-1.1,12.4v84.8h-41.3L1757.7,391.9z"/>
<path class="st0" d="M1932.2,292.4v46.8h39.2v30.9h-39.2v72.1c0,20,5.4,30.2,21.2,30.2c5.4,0,10.8-0.6,16-2l0.8,31.4
	c-9.7,3.1-19.8,4.6-30,4.4c-13.2,0.6-26-4.3-35.5-13.5c-8.7-9.4-13.1-24.4-13.1-45.8v-76.8h-23.3v-30.8h23.3v-37L1932.2,292.4z"/>
<path class="st0" d="M1772.3,230.2L1772.3,230.2c-1.3-0.3-2.6-0.3-3.8,0c-8.3,1.1-16.6,2.9-24.8,4.4l-39.7,8h-0.2
	c-1.1,0.3-2.1,0.6-3.2,0.9c-0.4,0.1-0.7,0.3-1,0.6c-1.4,1.6-2.3,3.6-2.6,5.7c-1.3,6.7-3.2,13.1-4.4,20.1c-0.6,3.3-1.8,4.4-5.4,4.4
	h-360.8c-9,0-12.6,4.4-10.7,13.1c14.1,60.4,28.1,120.9,41.9,181.6c0.7,2.8,1.3,5.7,2,8.7c1.6,6.7,4.4,8.7,11.3,8.7h273.7
	c1.1,0,2,0.9,2,2c0,0.2,0,0.3,0,0.5c-2,9.9-4,19.6-5.8,29.2c-0.5,2.7-2.7,1.9-4.4,1.9h-227.6c-16.4,0-33-0.9-49.3,0.5
	c-20.3,1.8-35.7,18.9-35.5,39.2c0.1,8.5,2.6,16.7,7.3,23.8c0,0.1,0.1,0.2,0.1,0.2c0.4,0.9,0.8,1.7,1.3,2.5c1.1,1.2,2.1,2.6,3.2,3.8
	c1.4,1.3,3.1,2.3,4.8,3l4.3,2.2c12.3,6.4,26.9,6.7,39.5,0.9c0.5-0.3,1.1-0.5,1.6-0.8c18.5-9.4,26.2-31.8,17.4-50.6l-1.3-2.9
	c-0.5-1,0-2.2,1-2.7c0.3-0.1,0.6-0.2,0.9-0.2h200.6c1.1,0,2.1,0.9,2.1,2.1c0,0.3-0.1,0.7-0.3,1l0,0c-8.2,14.9-5.8,33.3,6.1,45.5
	c12.3,12.6,31.1,16.4,47.3,9.7c20.5-8.3,30.4-31.6,22.1-52.1c-3.6-9-10.4-16.4-19.1-20.7c-2.3-1.3-3-2.3-2.5-5
	c9.3-44.2,18.6-88.4,27.8-132.6l26.2-124.9c0.5-2.3,1.8-2.8,3.6-3.2c16.9-3,33.8-6,50.7-8.7c6.7-1.2,10.5-4.4,11.1-9.2
	C1780.6,235.7,1777.3,231,1772.3,230.2z"/>
<path class="st0" d="M1511.5,291.9h-28.1c-2.5,0-3.8,0-3.5,3.3c1.8,23.7,3.5,47.4,5.1,71.1c0.2,3.2,1.2,4.4,4.8,4.4
	c14.2-0.3,28.4-0.3,42.6,0c4.1,0,5.5-1,5.7-4.9c0.8-13.1,1.8-26.5,2.8-39.8c0.7-10.2,1.2-20.4,2.3-30.5c0.3-3.4-0.8-3.6-3.6-3.5
	L1511.5,291.9L1511.5,291.9z"/>
<path class="st0" d="M1595.5,291.8h-28.1c-2.6,0-3.5,0.6-3.8,3.3c-1.9,23.4-3.9,46.8-6.2,70.1c-0.4,4.4,0.4,5.5,5,5.3
	c14-0.4,28.1-0.3,42.1,0c3.4,0,4.9-0.5,5.7-4.4c5.4-23.7,11-47.4,16.7-71c0.7-2.7,0-3.6-2.9-3.5L1595.5,291.8L1595.5,291.8z"/>
<path class="st0" d="M1428.4,291.8h-27.6c-3.3,0-4.4,0.3-3.5,4c5.8,23.8,11.2,47.7,16.7,71.5c0.1,1.9,1.8,3.4,3.7,3.4h0.4
	c14.5-0.2,29.2-0.2,43.9,0c2.9,0,3.9-0.6,3.7-3.6c-1.5-18.6-2.7-37.2-4.4-55.9c-0.4-5.4-1-10.8-1.2-16.1c0-2.5-1-3.1-3.4-3.1
	C1447.6,291.9,1438.1,291.8,1428.4,291.8z"/>
<path class="st0" d="M1606.4,467.6h42.3c2.2,0,2.5-1.3,2.8-2.7c5.1-24.5,10.2-49,15.3-73.5c0.5-2.1-0.3-2.4-2.3-2.4h-37.1
	c-1.7,0-2.7,0-3.1,2.1C1618.6,416.5,1612.6,441.9,1606.4,467.6z"/>
<path class="st0" d="M1511.3,389h-20.8c-2.8,0-4,0.4-3.7,3.5c1.4,15.1,2.7,30.2,4,45.3c0.8,8.7,1.7,17.8,2.3,26.6
	c0,2.4,0.8,3.3,3.4,3.3h30.8c2,0,3-0.3,3.1-2.6c1.7-23.7,3.4-47.4,5.4-71.1c0.3-3.9-0.5-5.3-4.9-5
	C1524.3,389.4,1517.6,389,1511.3,389z"/>
<path class="st0" d="M1443.5,389c-6.8,0-13.6,0.3-20.4,0c-3.8,0-4.4,1-3.3,4.1c4.7,19.7,9.3,39.2,13.9,59.1c1,4.4,2.2,8.7,3,13.1
	c0.3,1.9,1.2,2.4,3,2.4h31.7c2.4,0,2.6-1.1,2.4-3c-1.6-21.1-3.2-42.2-4.8-63.2c-0.3-3.2-0.5-6.4-0.6-9.6c0-2.3-1-3-3.3-2.9h-21.8
	L1443.5,389z"/>
<path class="st0" d="M1580.5,389.1h-21c-2.9,0-3.6,1-3.8,3.5c-0.9,13.7-2,27.3-2.9,41c-0.7,10.2-1.3,20.4-2.3,30.5
	c-0.3,2.6,0,3.7,3,3.6h29.9c2,0.4,4-1,4.4-3l0,0c5.5-24.1,11.1-48.3,16.9-72.4c0.6-2.5,0.3-3.2-2.5-3.1L1580.5,389.1L1580.5,389.1z"
	/>
<path class="st0" d="M1650.4,371.2h17.4c2.3,0,3.3-0.4,3.8-3c4.9-24,10-48,15.1-71.9c0.5-2.5,0.6-4-3-3.9c-11.2,0.3-22.3,0.2-33.5,0
	c-2.7,0-3.5,1-4.1,3.4c-5.5,23.9-11,47.7-16.7,71.5c-0.8,3.2,0,4,3.1,3.9L1650.4,371.2z"/>
<path class="st0" d="M1359.8,389c5.7,25.6,11.4,50.8,17,76c0.3,1.6,0.6,2.7,2.7,2.7h38.3c-4.7-20.3-9.3-40.1-14-60
	c-1.2-5.4-2.6-10.8-3.8-16.2c-0.3-1.6-0.8-2.5-2.8-2.4L1359.8,389z"/>
<path class="st0" d="M1375,370.4h16.7c2.4,0,2.8-0.8,2.3-2.8c-5.8-24.3-11.5-48.7-17.1-73.1c-0.5-2.2-1.6-2.7-3.8-2.7h-33.1
	c-2.8,0-3.3,0.9-2.7,3.3c5.8,24.1,11.5,48.2,17,72.3c0.1,1.8,1.6,3.2,3.4,3.1c0,0,0,0,0,0h0.5C1363.8,370.3,1369.4,370.4,1375,370.4
	z"/>
<path class="st0" d="M1665.3,559.8c0-12.3-10-22.2-22.2-22.1c-12.3,0-22.2,10-22.1,22.2c0,12.2,10,22.2,22.2,22.2l0,0
	C1655.4,582,1665.3,572,1665.3,559.8z"/>
<path class="st0" d="M1342.6,559.8c0,12,9.8,21.8,21.8,21.8l0,0h0.4c12,0.2,21.8-9.3,22.1-21.3c-0.4-12.2-10.6-21.9-22.9-21.5
	C1352.5,539.2,1343.2,548.3,1342.6,559.8L1342.6,559.8z"/>
</svg>
